<mxfile host="65bd71144e">
    <diagram id="HIP3nbAZw_EuaXWnEj3U" name="Page-1">
        <mxGraphModel dx="887" dy="282" grid="1" gridSize="10" guides="1" tooltips="1" connect="1" arrows="1" fold="1" page="1" pageScale="1" pageWidth="850" pageHeight="1100" math="0" shadow="0">
            <root>
                <mxCell id="0"/>
                <mxCell id="1" parent="0"/>
                <mxCell id="7" value="http://ics2o.mths.ca" style="swimlane;whiteSpace=wrap;html=1;" vertex="1" parent="1">
                    <mxGeometry x="60" y="60" width="760" height="480" as="geometry"/>
                </mxCell>
                <mxCell id="8" value="" style="rounded=0;whiteSpace=wrap;html=1;fillColor=#f9f7ed;strokeColor=#36393d;fontSize=9;" vertex="1" parent="7">
                    <mxGeometry y="127" width="760" height="353" as="geometry"/>
                </mxCell>
                <mxCell id="11" value="" style="whiteSpace=wrap;html=1;fillColor=#e3c800;fontColor=#000000;strokeColor=#B09500;" vertex="1" parent="7">
                    <mxGeometry y="20" width="760" height="110" as="geometry"/>
                </mxCell>
                <mxCell id="16" value="Click the cookie." style="text;html=1;strokeColor=none;fillColor=none;align=center;verticalAlign=middle;whiteSpace=wrap;rounded=0;fontColor=#0D0D0D;" vertex="1" parent="7">
                    <mxGeometry x="8" y="148" width="150" height="30" as="geometry"/>
                </mxCell>
                <mxCell id="21" value="" style="shape=image;verticalLabelPosition=bottom;labelBackgroundColor=default;verticalAlign=top;aspect=fixed;imageAspect=0;image=data:image/jpeg,/9j/4AAQSkZJRgABAQAAAQABAAD/2wCEAAkGBwgHBgkIBwgKCgkLDRYPDQwMDRsUFRAWIB0iIiAdHx8kKDQsJCYxJx8fLT0tMTU3Ojo6Iys/RD84QzQ5OjcBCgoKDQwNGg8PGjclHyU3Nzc3Nzc3Nzc3Nzc3Nzc3Nzc3Nzc3Nzc3Nzc3Nzc3Nzc3Nzc3Nzc3Nzc3Nzc3Nzc3N//AABEIAKwAtwMBIgACEQEDEQH/xAAbAAAABwEAAAAAAAAAAAAAAAABAgMEBQYHAP/EADoQAAEDAgQEBAQFAwQCAwAAAAECAxEABAUSITEGQVFhEyJxgRQykaEjQlLR8AfB4SQzsfEWchUlYv/EABkBAAIDAQAAAAAAAAAAAAAAAAADAQIEBf/EACgRAAMAAgICAgEDBQEAAAAAAAABAgMREjEEIRMiQRRCYQUyUWKBI//aAAwDAQACEQMRAD8A1whY2opUv9JpUJKxKZrkA85oAIhM70s2jrp6UdKAN6OIFAHBMUISBXEgUk4sn5aADrVk2pKE5jync86IVHnXAA84oAVEciaEqHUUkVhOijB6Um4+B+WfSgB0FdjXJk7k038fQTz5UQ3BJgGNedRtE6Y9jWKAoR1+lNU3Civb3mlDcoREc+1SGmLOOBHy6elJofgwkE+tNlOeK6Ao5Z2EU4SAkajWoDQLjqk7UAQ45/uK9hXaHc0Uq/So1JAsnyiBoO1dM0h4jp/MfpQoRPzqPtQAsCD/AN1xK1fKI9a5LY6j6UYqjagAgQkfMo0FcQO9dQAi20DqZI9YpdKx0omx0OlGSKADzXEgURRgSaRW4aAFFrHWkiuk1CiwoAk7D70AHUrsaTW6EglZ2E6Um9cBsZE6q70zCVugLcOYzqDWLyPM+N6n2zTjw8uxy5eHkrMNNI60ku4eAlJyaTtNKNIRkCshAMfMIpRXhJbJ+UAanpWCs2W/7mPmZX4G3gOOZS64oq6AxUcGbZb76U3xW4SSW0ufLG4mofi3iBu3bRZ4c6fiHpUp1KpyIG8/XSqM7f3GHIw/EmknwnLnKl6dwN9Nzz1iNN6mcVWt7Gra7NTFtdaKQ84nolKzTuyu3wnzKDyUmCqSD9edNbRDi7ZKnDo4oGEqBkabHppT/OlKQ1okpTohP/NIjLcfknJp9oXYxVhxweKUNrBhJnMI9aksyF/KZHXlVeWyFt5NVIIAOg2o9u89aqOQ/hj8izpWzF57T1a/6Ivx019GThQFCSdOooYKNjPtSdq808j8KZG6TSpkGE7966k0qW0YXLXZwPagUoEkDSOtF27+lCnyqJ3nrViAZI5z6UJk0USPl+9cTFAAFaq6uOtdQAJSB1PpQeIBuaT+Ij5fvRFXBPL7UAKKXmPQd6RJnnHrRQrOYJ+lKpZA7+tABPMfzn6UW7Um2YLmilzCUTvTkJA0O/LvUffqC32WEpKoT5zGppHk38eNsbindIbtJVObOpSjqZG3+KXLOdRMkRuBsqiht9LiSjMlKRJgz7UcuFKiC3vzFcKf9uzc3v0jP+L/AOo7dm4vDsIbWt+fDU5tKtsoPLpNQnC99cOYsvDMdCyMQyQhL0oB1MaHQmCKneL+DjjT67hCiFFJhRRH1qPwPgZzCMZt7m6vXFMMu5m4B0PUma2qo+LTIS9+i/4xgGFYlYhm5YhCJ/21ZFJ9xHWoiz4Owu3w0WlwkXNlbqLrLTypKFbnXfcn6mrAq4bMeG6paZOYGDl/7pFLqShSFgSFEaRoOoPOkfK16QJPXskW2LdDYbbyobQnQAaAAQAKp/FuJYtYWviYPbeOydFvlOx3EDpUu/iLbBQH32gkhKswV+XTlTsXttc2+VPhvN5CkazpsRpUpre6QJOWU/hHjF25c+Cxm3Xb3Hi5UmE5dQIk+s7Vdi2CElQBHpv27VUWeDWL3FEXzuIXK0NqB8EpA22kj9qt7y1FwFAnKNxvz5VGbg39SXtCdyMiCWlKSofpGtHwnE88W12oB5ByqP6jSan0pT5glJHzSQIHrTR+3Y+I8dtnxHVDKSAMyfQml4814aTl+iXCtNWWTYHLy5GhqPsr0EBm5kuxCZ/MKfiOZjSda7uLKss7RzrhxWmGGgmiuKAo2yYOlEDQVuaaUASaChUz0VXUAF8FIE1waQaTtQFI8q83rTgacqCQuYJAShsQeZ3oxhPzGuJPl7U1v3ltW5KEguK+UE8utVu1EcmTMOq0FuLlKfw83m2zdD0pqpQbWVKWc5GiVKk0yYf8a3KmyplKVfiqUOY/T1HejJvcGUQHLlhRVBBW6IJ/4rhXkvNWzoTHAd5nnESCW0g/lEz/AJpUsAI80x2AmoG5tbZ29tsTtr5xFvaLUS2hXldJEa8zHWacK4qwstgpuWVSSBlVB0oSlA030PL66btkjMCATGpj2jcmolOMWt488zbOpcdQCFMpScwHpE1m3GGOYpd8QrubBTptbUJ8Mk6AGSSQdDJBnfvTfhRF8ni60e0aW9D6jlCUlChMwNh6dqc8P15MtJq9tZ3rwU6ylu3SQT5yc3/GmtLpt30JCVgpcSmAEbDTYGKO/iZtzK4JWCpEjf8AnX96iLDErt3E3ri7cbbaCAlLSjsZMnuTp6RSUpD7FRVjV1fJxO2sGkXN89kDdusSsqQfPvGggkDQdqlP6dquGy7a424i3fALi2nlgkqB3AO36T1phxHZfDFzHuHL9NrfeOWSGyFJdSohM+sxr29KdcJcNvtLuL++XN+4mHHFDNnMySrfWf7Vu+THw6FtU2aOplhCHC2uF/mUOVR9v5cQUwp0OIylSkpkmZ0J1gelU7iReLMWy27E5CPnuCPlH9yPtUJh3Er3DzTXitLdTdp8bxy4krXynKNu0/Ssqnktoup/k0u7sHVKVdWcNuHXIrZXeOtNrZ9boSlSocjeNjUTdcaW1xhqLu2KjJyqAElJ70rw6+LpDrz+UOqP4pTuD/is2SBsrS9k3coVlSpsFJGocGmvpUjh2IJvLcTq7ssD8tRjlyhhkpUIETJMiOxqGsL9GH4kl9LktPqhYnYE/wBqf4eZ4r1+BeTF8kfyXdRKdfmFChwTHOhbUnJl2HejnKhGcplXau72cwGDMZkj3rqbkKKpVH0rqAOSAD5U5R2pbOaRTnnl60dJB2qF0D7D6ETUDibgurtTcLyI0UEjcc9hNTL6/DaUrkkSagLRzyrfQvzuElMiY7RXP/qNtSp/yavFnuhjxkl3/wAZuk2rSytIAQETIE7Rz05VnHDWHN3C21Y5fOtWaSFC1TJLsayQJgdt+9bEle6PmG+2hH0rD+P2rzAscVcWy1tNvKlHhrPkHQ6+9Z/G9riaW9GmuY5YuYknC2w3JEIW2AUTEgCO38FOX8Awt57xCzkcG5JmSfXvWW/05vV4ljYUsDxGElaVEx5tN4HMDpyq5cTcRqRdO4fa6rUlIU4N2yDJAH83NF4uN8UE++iUxPA8PvrJakWbSbhpSgFtAoUSNpkbRvTfhHCGLBKsTfym+dzpWEOKISkSADJJG3KozhnillOILwm8ukOuKUFIMg5lFOqZ9gJ+9OuIGr6xZfu7R1CGXBKUkjQ7bd6Kdz9WRr8loU9Zu3Cm3VhxsnKkKAGvTbvTe8ZtGbB1123JbSkqGVQISANwDr+9U1pvHLdFqyh7x1vrWSggKKYiVakCBmBn23MGXwXEbnHPiGbtly2etT4bqFghQVlmTGkEaiN9I0qlY8k/auiU0/Wyk4njKWLRpTDiQpRKkM5IJSVE+Yn/APSiP5rf+D8bGOWBS1bltxlSUvNgxGm8nkayW9tVsY1c21xISws5VOGJTOh17GtC4AsnbJp+/SVeHcqCAnlAnXXuftWjJE8Nld+yw8VNm8wbEGWPM8tpRyg76ftNYutDKXI8QtJzGVOJg+4E863xF40tGSMyymIGg6bTAqt8RcGYfeOG9DCWXZ1CRAPvFIx3Ml09dlb4L4daxOxV8VnDSnJ0kSB/irxi+HhjD/GtPiGgykZxagBS0jkZ6b1TrK6vEYirDcNU1bot05lLJyFUCVTI1/hp4zxdfM3JsXkpXcFJU0oaGRP/ACJq1RX9xPZHNYi818Gw0p51l8lKXFuZlEzoAY25QSY7VLt4IDc2907dueCBmDIQTtMnfTSBHaqdgqsQxviO3ULdy3tGrnOseF5Qc2Y6c5OprTbxlLLpaSQlCx+GUAAjnBpPlPg/qNxvfos2CXKn7cBapKJRlI6VJAScvy+mtVThZ9XxNy2qQTBn6g1aknTvXY8a+eJM5fkRwyNCgbA+XX1oKFKuldTxAkkCI5UKko5SPTSgHbX0oqlUAMsVcy2LvhnLCSZVryqBswXkJZVmBgEKBhQ2meX2qaxpIcw98OAkZDt6VVMEvPirlxi1eyraTm+Wcw7E7j3rkf1FN1J0PEX0ZYXAGUwAYA+YDVRrEMRu/EavBejxC4VGVH5V5t5+o9+VbWhS1hxkJJd+ZSkpkJHTbQ1mHGPCrpxH/TFSbV9fiLy6lBmdBzpfjUk/Yxgf0+RaIvmUWyQq4WyVrLQICDMQeUkRQf1BwzEF3z15YZiHQM4AggwBP2qwcK4U3hNscsFxRAUqPN9PSpy+ZVcNqloqSnd0EGZ6wZq1ZNXtBK9GN4Jgi2FC6xD/AHEK8qQrKUkRHv26Vo+FuP4vav2KmEviE5nQnUCdc06BUd94qpccM3fDmIF1Jbcbuk5loBCkJPfodRqKNwNe311iiShb1izurwVRnMHKCOYHetNzySqystcdSTTz9/gHETbNnYXiLl25l50BKku2xPlAEEpiZKY5d6u/gItiq5WpSnXWkoLikKSBBURoRrGY8u1JWuJ/DPf64oU4kHzFIEQOnI/5pmxjTOLXf4a21oMiQc0HvypOfNzjS6KRDVbCv4ThDtwm4ft2nEpgN+QACP8AvnUg0QtttKUZQ2MvlIGYxrHQbcq4pZWEvqCcwM5kq8sCdx/OVVPiPiIN36MODxaQElLjzY80mSOW071lhVfo0aS9lpty20rMHUgGQrMYgddef1FO73EW3LN7w3gtxHIEeY9BVb4fxBrE8LbKlldwB4anHNJI5Qk6D0ipBXDrToSnKjwQoF0p1Dms5VAn050OdPRD1sp39QMFv2n2blsspt1IAUjMfIpI1MxMH+/vUZwQm/xHF0LvXFLab2KxqeQ5dzWq+CylhdszbIImShtIn77bdagr1i1sVvPMpKVIQVrCNTlG50rRXkbXFIpMa7LAhLTQhtIASAZnnTW9cWtk5VTEKQUEdedUc8ctOLKXW3Akn/cBIPpIIMVYbW7F80h/OyttSJSQdY7g6VhyxfbNELRI8LLUMYWkkz4YlBjeavCaoHBv4l+t1K0qAQBO0a/z7Vf013PDWsKOb5b/APVh5y/L966gNdWozCIXPb0oYKthRUJkTsOpoWyE7E+9ADe9SosKQmFSkjX0rP7zE02Hwd24pKEHOytXRRg9dvL960O4GZuVaf8ArWcY5hbeIpuMJeUW7YuZkLSkS2eROmornedPTfRu8N9ySNvjK/GcQsBKXYMoEAmIOvM/tThVy1LSlOsOhYKUkqgGNojf7VS8esF8OcKNs+Mi+WFhIfjLlJkp05iOtVvDeJ762f8Ax3s4UYzGRHbTlWNYOS3LNWza2zaXFqhALKHmE+ZPPLttz9aiMTv7PA21N3FwhsvqOXzQTHKeZqRwVy0xHD2XSQpSkgjSCB251VuPFrw9VuplbjVisw4rKClKgRE849Iq8UqpJieLQ3vuJ+GA84hdu6lLiEoCnLcgg+aNCPv+1V+64mFhelqztmFNJSCNYOonf0qO4jxxi6KHFxiAZTC1KQpuCfeSdzr2qJbWlwJuL1p5TRhWiwCU84MEDprWysW/ZE6RacXuv/l8HdxC2ecZynI42kaJJ5H6jXvS+GOYbh/DqlMeM5ftjZByhJJA99/5pQ4Jw8+9w3fsXIUwq6AcQlQkRHl09vvVPftcYwxxxlTd0w7GWUTCknuNI0pcJe5Zd67NFwS9xW8wlTtw802gk+FI8x0Jg9PWsvxh24dxNfhgqWpZITlhRFPMLxTFMBuE+dbTjYOdLnTfY9+n96nOF7pnGseQ49h7ASpORx5IVqeqdd535U3UQtoo3yJ7+mD102zcsXPi6wtIOk9ferxieM2mE2fzS65HkSoAkDmTsKTsMNscNeXdIGVopGedSCJ3HIVSuOWcSXf2V8xbXZtglSm1ITnyGdDA29Y0rLp3ey34JvCrtN9j7du4l1q8DK1KQnMIV5YkzzB2I5U442wxy5wh9solbRS4UtCVJEgkiSJMTzrOcNxm/wAIxhu8W26m6XBKV+YOBQ2I6Vr9up5Vqlxba1LdSFqypEpJ1Iie9UzTGPTRZcmYM4rMsnUEk5uo9q0fBYTw6hNnarYLuVASp7xIP5jsInUx1NGxTh3D7q5XdBIy5/MUjdXWjl5FrbpQylKomArzZdxGnbnVMuVXKWhsp7LJwOwALh0CPPlAB6aVdB9KrPA7f/1AeiFPLK9o0NWfIVbkV2MC1jRys73kYPrp60NANP8ANdTRQ3KpEfYbUPn/ADBPtRUj9BBo4Xl3IPpQAQwQQdhVO4pbdtb1m8zkA+VRy/TTpV1SpTYJU3mmozGrFeIWbjbsQ4PcelKzY/khobhyfHWyh4+GsdwR22beShBhZ8kSobH6mstdsLht5LQkqKsqi3rA61ozbbuFvLtbsKMqJDivlyz+2lLOWllcrUbgDLGUqj71x5usD4UdRpWtolcBaRZ2TDIUoBhsNyFaAD/n6U6xjJiuHOWykh3On5YiqpdOXOHoCfDL9qIyqTOZPY9f5vT3BLsXyEll5AUZnSCkjqKVpp8kDGWHcDJbQppdy8qydKHFW24UUny5lR9p2qVu+HLZ8KLlsAl1KhkSBEz5VaGDrNWNpH4QBdkOJyDwz8mmuvXp71CYjxFaMXvhKUtSAr5/ChKI3TrvHM8qcst0L4LZIYdZKsmEIU4XNPKV68u89qB3Dg4o+KkBtagUKVJIgJ57DWadBDlyykoU3l+Yf2j7UaQuG71vITAT6g6Rr2pXL2W16Ia64es3UMtX1m2sg+WAFgmYEmJHpRW8NssPStTbCGsoK1BGwTE79ZqxApQASjIiZQreIH70wujYOJWg3VuXgZU2VjToCf5uavzqvRVJIj7nFstsUJVoDuRp7VO4QofChTiz5hCQ4omE+/8AxVT4dZZxDF7pN2yWzaR/pp0PQyNwe2lXNYDvlUlBER5VAEfzSqv6A9De4+GTkJZQoJUMpKNT61FYzj9vZ2jjqgSpIhLad/2G/wB6DHbpvC2HHVmcg1c/LoNZM/aspu8Tv7u8W7dFfh3BMGAElPICN6vixfI/ZLalGgYBepxTB271yWnXVKKkk5hE7AexpmtkP37djZJIUoSUgRlk6np0pvgaVYdw0w26YW5mUE6jykyOfrVz4KwhKUG+fEvOa68h0pnj4OeZv8Bny8I/ktWFWgtbNttIgIECKfJPY0mhRByijKUpA830rsJa9HKb29hzB+fSuomp31rqkgIttZ+U/Sm6c6Nz9qdNuFW/lrlBKxkI83XlQAiHiTqrSjZ0LERp3oClCdwPag8Q/lg+1AEDxRgSMTt/IPMnYiqBbIuLK6Uw/mSpOmo589DuK2DRQIkgGq7xRgSL23U6zAeQPKevrWXyfHnLP8mrx87h6ZBsNsOuJ+MLeQR5xqQOmlV7ily04exawvEFBTCvHQndaTpoPWnVribtq+ba6aczEQUk6z/OdR+OcPsY9fMv3V2q2UlAQvyzmTPIzFcnH9L430dCp5Lck5acSYdeoK8Ov8yssZXDlWkdCDH71QX8cZevH3XrQlS1lQQHICZ3PWrIzwdhlqEf665U6pXleUQAD10FNcX4aQ+psISlavSSrvWjHeJN6FNWKcEcTPJunrR1Y+DQCtLhElszGnrO37Vebi8S24rJD7yRplEg5hoexM/2qg4NhTNmsLQUhfrp/P562e3vQ00U27CdddTEbfbSlZrlv0iZT/IF6m/xEqQ27c2ydRmCBBPvWa43h+KWUXF0l3K4otlZc1LgOqtOup19K0G/xh5KcreYLEk5STqNzpFRQN5fgfFNseAAcoc8wE76de80zBk4bdBUuuircP469g1+oNulZLRQM8qKNv8ANWZnj4PvtoUhUhJS44FmFDWNBpOu9RR4XsWkLcVcORJAA8sfvRLfBmGnQQcw/UdYHSmXWK/wVmbXZam8QaxW4QwAlaEeZQdGYJPUjb2qPxWxw74jxPASTGbYfQjb/ukUXDFn+EwpA11yyCfXrUrgOA3GKuePdDKyozlj7UrFhu69dDMmSYXsNgNm9jN+h5wK+HajKSN+0dK020YDLWRIAAECKQsLFmyZAZbygdBtUg2mfXpXWx41E6Ry8mV29sUSnTqa7wtZKiT3owITtQFVMFhT5fmoKMXCflMe1dQAmfMNx6CjgHfnSKShJkHWlwQaAC5TzSKJ4aTzCfenMnpQZGz82X6UANlJUNqJMpykTO9OlNJ/XXeCf1H6UAVTiLhtnEvxW5S8Boodaot3h+IYash23DyU7LPL051sXgSeaRTS5sUPgh0JVPIJpOTBGRfZDsee4ZkKbxhxaQ8pxQGsFX9iJ+9Nn0FLXh2b7qApRH4i831mtGxDhSyulT4YA9Krd5wWtOb4V5adZ3JrK/Ca6ZqXmJ9ortoi7SqXrllRKYIiDIp6m6W20lIUkKHVW32+1L/+NYk2rL4yjv5so1oyeFcRVs4D6iqfpMjLfqYI5+7dMeFdIYWRKnCJ5UZF0llv8dbb5iCSCM2s67R7RUsjgS+eVLtyUSdRlp5bf0+t8sPXD6j0Cqn9HXWyP1MFFuit65LhcARPkaROlS1hg2IYgtBZaWBAGb5QfatDw3hLDbGChoOEczqan27VDaR4aQEjkBT58VfuE15T/aU7A+DGmVeLeqS4vuKuFvbNstJbbTATsKcJSCmNPejpR6VqmZlejNVOn7AbbhWZRPpypXL0+tFgp5UISn+GpKgEK6UVR70oUnqaIpsUAFHbWgpQJymBXUAMULnlSiVKHp1pMiNqNmM9ulAC+c/qNCXY3TTaTRS4pPf1oAepd080elD8T3qOzqV5idaAk0E6JLxUq3UaMhSeRqLBPWjoUetAD0iek9KTU2gzCQJoUEpHXuaPm7CggZuWxK0kRlE5kxqfflQt2yGjEGnc5dq4ALRKt6A2JBI560qUxyA7mlQ2npSgSOevrQA0LKf0R6GgS2tJ0mKeltPSuAoAagJX2PQ0oUqTvt1pRSUujzgetIrJbPkJA6UAKon80UOZP6aSBKt6MKADyDyrinLtXCiqWqgAChWaaGkyo9TXUAf/2Q==;" vertex="1" parent="7">
                    <mxGeometry x="529" y="164.38" width="165.57" height="155.62" as="geometry"/>
                </mxCell>
                <mxCell id="22" value="Cookies: __" style="text;html=1;align=center;verticalAlign=middle;resizable=0;points=[];autosize=1;strokeColor=none;fillColor=none;" vertex="1" parent="7">
                    <mxGeometry x="30" y="178" width="90" height="30" as="geometry"/>
                </mxCell>
                <mxCell id="19" value="&lt;h1&gt;&lt;font color=&quot;#0d0d0d&quot;&gt;&lt;span style=&quot;font-weight: 400;&quot;&gt;Cookie Clicker&lt;/span&gt;&lt;/font&gt;&lt;/h1&gt;" style="text;html=1;strokeColor=none;fillColor=none;align=center;verticalAlign=middle;whiteSpace=wrap;rounded=0;" vertex="1" parent="1">
                    <mxGeometry x="220" y="80" width="440" height="120" as="geometry"/>
                </mxCell>
            </root>
        </mxGraphModel>
    </diagram>
</mxfile>